<svg width="396" height="381" xmlns="http://www.w3.org/2000/svg">
 <!-- Created with Method Draw - http://github.com/duopixel/Method-Draw/ -->

 <g>
  <title>background</title>
  <rect fill="none" id="canvas_background" height="383" width="398" y="-1" x="-1"/>
  <g display="none" overflow="visible" y="0" x="0" height="100%" width="100%" id="canvasGrid">
   <rect fill="url(#gridpattern)" stroke-width="0" y="0" x="0" height="100%" width="100%"/>
  </g>
 </g>
 <g>
  <title>Layer 1</title>
  <defs>
   <style type="text/css">.fil0 {fill:black}</style>
  </defs>
  <g stroke="null" id="svg_8">
   <g stroke="null" transform="matrix(1.874857021857965,0,0,1.7205173367969844,3.3551898923123433,-0.000023250909658879305) " id="svg_4">
    <path stroke="null" id="svg_5" d="m154.90314,167.26758c8.25478,1.52845 15.4188,5.02998 20.48882,9.77511l0,-9.77511l-20.48882,0zm20.48882,-8.29529l0,-26.68528l-71.06787,0l0,10.83112c-0.16159,6.46116 -2.42392,11.69956 -5.9184,15.8611l76.98627,0l0,-0.00695zm0,-34.98752l0,-11.90104l-22.2327,-14.79119l-48.83518,0l0,26.69222l71.06787,0zm-34.70913,-34.99446l-36.35874,-24.18418l0,24.18418l36.35874,0zm-53.15109,78.27728c-7.51414,3.75859 -16.21331,5.35651 -23.10127,5.35651c-9.86399,0 -17.88311,-2.04256 -24.05063,-5.35651l-38.14301,0c-2.20846,0 -4.02639,-1.86887 -4.02639,-4.14765l0,0c0,-2.28572 1.8112,-4.14765 4.02639,-4.14765l28.13763,0c-6.19445,-7.97571 -7.04282,-18.11208 -2.57204,-26.68528l-25.56558,0c-5.32588,0 -5.32588,-8.30224 0,-8.30224l32.25828,0c6.57151,-5.59967 16.54323,-9.35826 29.93536,-9.35826c11.60787,0 22.05764,3.60574 29.34958,9.35826l2.18152,0l0,-26.69222l-93.73149,0c-5.32588,0 -5.32588,-8.30224 0,-8.30224l93.73149,0l0,-26.68528l-93.73149,0c-5.32588,0 -5.32588,-8.29529 0,-8.29529l93.73149,0l0,-54.00972l77.06707,54.00972l33.01912,0c5.31915,0 5.31915,8.29529 0,8.29529l-22.74441,0l0,26.68528l22.74441,0c5.31915,0 5.31915,8.30224 0,8.30224l-22.74441,0l0,26.69222l22.74441,0c5.31915,0 5.31915,8.30224 0,8.30224l-22.74441,0l0,26.68528l22.74441,0c5.31915,0 5.31915,8.29529 0,8.29529l-22.74441,0l0,26.09474c-0.52518,20.50202 -23.31673,27.91498 -37.73229,27.91498c-46.10827,0 -49.47482,-47.11087 -10.11312,-54.00972l-47.92621,0z" class="fil0"/>
   </g>
  </g>
 </g>
</svg>